#!OML:ASF F:\VICON\USERDATA\Patient Classification 1\PLAYGROUND\JustinFriday\JustinFriday.ASF
:FULLY-SPECIFIED
:DEGREES
3346
root 3.13234 17.2334 48.9 -199.558 -253.584 -199.56
lowerback 14.4274 3.47312 4.04572
upperback 2.71118 5.42599 1.8926
thorax -5.00421 2.66583 -1.27688
lowerneck -4.36384 9.0599 1.36477
upperneck 17.1129 12.2694 1.51759
head 5.88773 6.24735 1.0393
rclavicle 5.97348e-014 -4.77083e-015
rhumerus -29.5959 -24.4574 -66.235
rradius 24.6022
rwrist -6.17518
rhand -19.1257 -24.3906
rfingers 7.12502
rthumb 7.18378 -54.2486
lclavicle 5.97348e-014 -4.77083e-015
lhumerus -13.9514 28.6975 46.8389
lradius 90.1486
lwrist -24.3812
lhand -25.9763 1.75206
lfingers 7.12502
lthumb 0.568616 31.731
rfemur -30.0279 5.36681 16.0198
rtibia 32.8389
rfoot -4.67998 5.34369
rtoes 6.18651
lfemur 3.90173 -20.7219 -18.8727
ltibia 43.309
lfoot 3.43837 -25.604
ltoes 31.8183
3347
root 3.23483 17.2544 49.0373 -201.963 -254.192 -201.802
lowerback 14.0772 3.53889 3.11751
upperback 3.14824 5.4339 3.04672
thorax -4.55385 2.71502 0.480163
lowerneck -4.43344 9.0672 0.369194
upperneck 16.4928 12.4244 0.969962
head 5.6763 6.22353 1.01257
rclavicle -3.52843e-014 1.98785e-015
rhumerus -28.2142 -22.4348 -65.7375
rradius 25.1756
rwrist -8.16156
rhand -19.32 -24.4786
rfingers 7.12502
rthumb 6.99623 -54.343
lclavicle -3.52843e-014 1.98785e-015
lhumerus -12.692 30.1854 47.041
lradius 87.3326
lwrist -24.3508
lhand -24.3251 1.29624
lfingers 7.12502
lthumb 2.16337 31.265
rfemur -29.212 5.34388 16.7984
rtibia 33.1032
rfoot -5.07294 4.6114
rtoes 10.2809
lfemur 2.95665 -20.2804 -18.0321
ltibia 45.3718
lfoot 4.79717 -24.9712
ltoes 29.3532
3348
root 3.33169 17.2817 49.1125 -204.04 -254.62 -203.803
lowerback 13.9619 3.52883 3.12604
upperback 3.46932 5.47094 3.83172
thorax -4.23117 2.75581 1.30777
lowerneck -4.4734 9.01051 -0.196853
upperneck 15.9512 12.4939 0.17031
head 5.53107 6.17247 0.844604
rclavicle 5.24792e-014 3.18055e-015
rhumerus -27.2059 -21.4987 -65.0284
rradius 25.9945
rwrist -8.94632
rhand -18.9597 -24.5262
rfingers 7.12502
rthumb 7.34402 -54.3788
lclavicle 5.24792e-014 3.18055e-015
lhumerus -12.0818 31.0674 46.9756
lradius 84.2756
lwrist -23.8809
lhand -23.3269 0.879461
lfingers 7.12502
lthumb 3.12737 30.8363
rfemur -28.6765 4.31645 17.5555
rtibia 33.3055
rfoot -5.29738 5.08973
rtoes 6.76637
lfemur 1.79025 -20.029 -17.5644
ltibia 47.6161
lfoot 5.57622 -23.9821
ltoes 26.503
3349
root 3.43872 17.3035 49.2241 -205.02 -255.221 -204.454
lowerback 14.1283 3.53794 2.73484
upperback 3.60651 5.45909 4.13838
thorax -4.2442 2.76042 1.84124
lowerneck -4.47494 8.96365 0.016295
upperneck 15.8515 12.5155 -0.529044
head 5.561 6.14905 0.602977
rclavicle 6.55989e-015 4.6118e-014
rhumerus -26.8108 -20.919 -64.7677
rradius 26.7898
rwrist -9.15235
rhand -18.7792 -24.4968
rfingers 7.12502
rthumb 7.51827 -54.3432
lclavicle 6.55989e-015 4.6118e-014
lhumerus -10.7877 31.2884 45.9091
lradius 80.5577
lwrist -23.133
lhand -22.0067 0.63777
lfingers 7.12502
lthumb 4.40234 30.572
rfemur -27.7696 3.98003 17.8009
rtibia 33.4468
rfoot -5.43962 4.98629
rtoes 10.0383
lfemur 1.00331 -19.6875 -17.5471
ltibia 49.9314
lfoot 6.15117 -22.9826
ltoes 24.5673
3350
root 3.54351 17.3319 49.3308 -206.155 -255.85 -205.424
lowerback 14.7999 2.9849 4.48054
upperback 3.31282 4.93383 2.73747
thorax -4.63388 2.45655 -0.550779
lowerneck -4.34303 9.20441 1.54772
upperneck 15.5927 12.6036 -0.05305
head 5.52435 6.30503 0.508761
rclavicle -3.20043e-014 -3.18055e-014
rhumerus -26.8676 -21.3836 -66.7779
rradius 27.2706
rwrist -8.81962
rhand -18.9037 -24.3688
rfingers 7.12502
rthumb 7.39812 -54.2195
lclavicle -3.20043e-014 -3.18055e-014
lhumerus -9.48526 31.0238 43.4597
lradius 77.4762
lwrist -23.4004
lhand -20.8158 0.362644
lfingers 7.12502
lthumb 5.55215 30.2699
rfemur -27.007 3.71651 18.0049
rtibia 33.4935
rfoot -5.71537 4.91975
rtoes 9.50883
lfemur -0.119366 -19.1937 -17.4121
ltibia 52.3255
lfoot 6.60243 -21.8203
ltoes 22.4394
3351
root 3.63175 17.365 49.3827 -206.95 -256.191 -206.721
lowerback 14.5632 3.06073 4.56741
upperback 3.1258 5.06859 3.17174
thorax -4.73191 2.52015 -0.160634
lowerneck -4.27619 9.17996 1.07944
upperneck 15.3345 12.5852 0.0440378
head 5.39536 6.2798 0.592759
rclavicle -3.0911e-014 -2.38542e-015
rhumerus -26.365 -20.3247 -66.1033
rradius 27.7635
rwrist -9.44685
rhand -18.5844 -24.2393
rfingers 7.12502
rthumb 7.70628 -54.0789
lclavicle -3.0911e-014 -2.38542e-015
lhumerus -8.64796 31.3579 43.4794
lradius 74.4131
lwrist -23.7775
lhand -19.5711 0.234709
lfingers 7.12502
lthumb 6.75389 30.107
rfemur -27.2104 2.82918 18.3016
rtibia 33.5064
rfoot -5.52016 5.38592
rtoes 11.4429
lfemur -2.37222 -18.5703 -17.0633
ltibia 54.9251
lfoot 7.06627 -20.2812
ltoes 19.1008
3352
root 3.72301 17.4048 49.4877 -208.654 -256.581 -208.226
lowerback 14.7464 3.03187 4.20308
upperback 3.24663 5.01834 3.56124
thorax -4.7733 2.50797 0.450166
lowerneck -4.31999 9.30386 0.686854
upperneck 15.0372 12.7271 0.325074
head 5.26632 6.34608 0.733961
rclavicle 7.15625e-014 -1.03368e-014
rhumerus -25.5745 -19.24 -65.9754
rradius 28.1732
rwrist -9.81185
rhand -18.0192 -24.261
rfingers 7.12502
rthumb 8.25178 -54.0799
lclavicle 7.15625e-014 -1.03368e-014
lhumerus -8.55832 31.6234 42.5628
lradius 71.8385
lwrist -23.4762
lhand -17.337 0.445493
lfingers 7.12502
lthumb 8.91015 30.2374
rfemur -26.3835 2.80543 18.7479
rtibia 33.4046
rfoot -6.17304 4.79698
rtoes 11.4212
lfemur -3.56048 -17.9129 -16.6395
ltibia 57.4463
lfoot 7.67887 -18.8851
ltoes 17.422
3353
root 3.8088 17.439 49.5868 -212.132 -256.883 -211.629
lowerback 14.8446 2.87348 4.77034
upperback 3.36691 4.9161 3.69497
thorax -4.66583 2.46055 0.292482
lowerneck -4.41626 9.36175 0.939549
upperneck 14.7301 12.7828 0.173255
head 5.21381 6.37427 0.649924
rclavicle -1.35174e-014 -2.14687e-014
rhumerus -24.8084 -18.8533 -66.1902
rradius 28.5068
rwrist -9.55759
rhand -17.8726 -24.5299
rfingers 7.12502
rthumb 8.39333 -54.3431
lclavicle -1.35174e-014 -2.14687e-014
lhumerus -6.34174 31.9996 42.2064
lradius 67.8051
lwrist -23.7524
lhand -13.9591 1.49701
lfingers 7.12502
lthumb 12.1685 31.1231
rfemur -25.6338 2.5096 19.6604
rtibia 33.2328
rfoot -6.67664 4.38802
rtoes 11.5362
lfemur -4.86352 -17.2036 -15.6541
ltibia 60.0732
lfoot 7.68676 -17.6989
ltoes 15.993
3354
root 3.88618 17.4678 49.6787 -215.706 -257.346 -215.137
lowerback 15.2989 2.75167 4.92469
upperback 3.2365 4.85246 4.01859
thorax -5.07008 2.42187 0.527752
lowerneck -4.26945 9.34793 1.29368
upperneck 14.5973 12.8056 -0.359446
head 5.20741 6.37232 0.429669
rclavicle -2.32578e-014 -1.98785e-014
rhumerus -24.3939 -18.1522 -65.9994
rradius 28.7869
rwrist -9.60162
rhand -18.6029 -24.4606
rfingers 7.12502
rthumb 7.68846 -54.3009
lclavicle -2.32578e-014 -1.98785e-014
lhumerus -5.27932 31.8235 41.7141
lradius 64.4579
lwrist -23.6085
lhand -12.5378 1.34239
lfingers 7.12502
lthumb 13.5387 30.8823
rfemur -24.8369 1.84663 20.4273
rtibia 32.833
rfoot -6.14907 4.14658
rtoes 11.5319
lfemur -6.23746 -16.4625 -14.8452
ltibia 62.5764
lfoot 6.85925 -16.5598
ltoes 13.9475
3355
root 3.95566 17.4929 49.7713 -218.092 -258.004 -217.515
lowerback 15.1117 2.72288 5.22853
upperback 3.58127 4.83123 3.92246
thorax -4.56874 2.429 0.283827
lowerneck -4.79789 9.27587 1.29474
upperneck 14.2298 12.6428 -0.173787
head 5.16744 6.29532 0.490598
rclavicle 5.48646e-014 1.43125e-014
rhumerus -23.3198 -18.1892 -66.2226
rradius 28.9387
rwrist -9.82989
rhand -19.4373 -24.2249
rfingers 7.12502
rthumb 6.88307 -54.093
lclavicle 5.48646e-014 1.43125e-014
lhumerus -3.44863 31.5747 41.4172
lradius 61.4578
lwrist -23.0012
lhand -10.8491 1.48653
lfingers 7.12502
lthumb 15.1658 30.9108
rfemur -24.1399 1.09914 20.7741
rtibia 32.3063
rfoot -5.97637 3.84807
rtoes 11.5344
lfemur -7.8586 -15.6303 -14.5096
ltibia 65.0492
lfoot 5.27029 -15.3719
ltoes 12.3024
